<svg width="92" height="29" viewBox="0 0 92 29" fill="none" xmlns="http://www.w3.org/2000/svg">
<rect width="92" height="29" rx="14.5" fill="#181414"/>
<path d="M20 17.876C20.656 17.836 21.36 17.904 22.112 18.08C22.872 18.264 23.468 18.356 23.9 18.356C24.332 18.356 24.652 18.264 24.86 18.08C25.076 17.896 25.184 17.664 25.184 17.384H25.424C25.424 18.304 25.3 18.992 25.052 19.448C24.804 19.912 24.352 20.144 23.696 20.144C23.144 20.144 22.6 19.904 22.064 19.424C21.84 19.224 21.616 19.024 21.392 18.824C20.856 18.344 20.324 18.104 19.796 18.104C19.46 18.104 19.112 18.244 18.752 18.524L18.62 18.308C18.876 18.084 19.128 17.92 19.376 17.816C19.624 17.72 19.8 17.656 19.904 17.624C20.048 17.568 20.316 17.492 20.708 17.396C22.076 16.988 22.76 15.752 22.76 13.688C22.76 12.616 22.588 11.8 22.244 11.24C21.908 10.68 21.484 10.4 20.972 10.4C20.468 10.4 20.064 10.684 19.76 11.252C19.456 11.812 19.304 12.584 19.304 13.568C19.304 14.552 19.432 15.316 19.688 15.86C19.952 16.396 20.34 16.664 20.852 16.664V16.904C19.772 16.904 18.92 16.636 18.296 16.1C17.672 15.564 17.36 14.776 17.36 13.736C17.36 12.696 17.692 11.84 18.356 11.168C19.02 10.496 19.896 10.16 20.984 10.16C22.072 10.16 22.964 10.496 23.66 11.168C24.356 11.84 24.704 12.684 24.704 13.7C24.704 14.292 24.58 14.828 24.332 15.308C24.092 15.788 23.752 16.192 23.312 16.52C22.44 17.168 21.336 17.604 20 17.828V17.876ZM29.8231 17V16.364C29.6711 16.58 29.4311 16.764 29.1031 16.916C28.7831 17.06 28.4351 17.132 28.0591 17.132C26.6351 17.132 25.9231 16.36 25.9231 14.816V11.72H25.3231V11.48H27.7231V15.08C27.7231 15.648 27.8071 16.052 27.9751 16.292C28.1431 16.532 28.3951 16.652 28.7311 16.652C29.1791 16.652 29.5431 16.412 29.8231 15.932V11.72H29.2231V11.48H31.6231V16.76H32.2231V17H29.8231ZM35.4659 16.76H36.0659V17H33.0659V16.76H33.6659V11.72H33.1859V11.48H35.4659V16.76ZM35.5739 9.896C35.5739 10.184 35.4699 10.432 35.2619 10.64C35.0619 10.84 34.8139 10.94 34.5179 10.94C34.2299 10.94 33.9819 10.84 33.7739 10.64C33.5659 10.432 33.4619 10.184 33.4619 9.896C33.4619 9.6 33.5659 9.348 33.7739 9.14C33.9819 8.932 34.2299 8.828 34.5179 8.828C34.8139 8.828 35.0619 8.932 35.2619 9.14C35.4699 9.348 35.5739 9.6 35.5739 9.896ZM36.7897 14.24C36.7897 13.296 37.0657 12.58 37.6177 12.092C38.1697 11.604 38.8697 11.36 39.7177 11.36C40.5737 11.36 41.2097 11.576 41.6257 12.008C42.0417 12.432 42.1897 12.872 42.0697 13.328C42.0057 13.576 41.8697 13.76 41.6617 13.88C41.4617 13.992 41.2417 14.02 41.0017 13.964C40.4977 13.844 40.2457 13.552 40.2457 13.088C40.2457 12.968 40.2577 12.788 40.2817 12.548C40.3137 12.3 40.3257 12.12 40.3177 12.008C40.3097 11.896 40.2857 11.808 40.2457 11.744C40.1657 11.608 39.9777 11.556 39.6817 11.588C38.9617 11.7 38.6017 12.584 38.6017 14.24C38.6017 15.888 39.1897 16.712 40.3657 16.712C40.6377 16.712 40.9137 16.64 41.1937 16.496C41.4737 16.352 41.6817 16.18 41.8177 15.98L41.9857 16.1C41.8017 16.404 41.5257 16.648 41.1577 16.832C40.7897 17.016 40.3777 17.108 39.9217 17.108C37.8337 17.108 36.7897 16.152 36.7897 14.24ZM48.7648 16.76C48.6848 16.84 48.5328 16.912 48.3088 16.976C48.0848 17.032 47.8248 17.06 47.5288 17.06C46.8728 17.06 46.4608 16.864 46.2928 16.472C45.8928 16.888 45.2808 17.096 44.4568 17.096C44.0168 17.096 43.6528 16.996 43.3648 16.796C43.0848 16.588 42.9448 16.284 42.9448 15.884C42.9448 15.348 43.1528 14.936 43.5688 14.648C43.9848 14.352 44.7128 14.144 45.7528 14.024L46.2328 13.964V13.376C46.2328 12.68 46.1808 12.212 46.0768 11.972C45.9728 11.732 45.7648 11.612 45.4528 11.612C45.1488 11.612 44.9528 11.656 44.8648 11.744C44.7768 11.824 44.7448 11.92 44.7688 12.032C44.7928 12.136 44.8328 12.276 44.8888 12.452C44.9448 12.628 44.9728 12.768 44.9728 12.872C44.9728 13.12 44.8848 13.332 44.7088 13.508C44.5408 13.676 44.3328 13.76 44.0848 13.76C43.8448 13.76 43.6368 13.676 43.4608 13.508C43.2848 13.332 43.1968 13.12 43.1968 12.872C43.1968 12.464 43.4048 12.116 43.8208 11.828C44.2448 11.532 44.8728 11.384 45.7048 11.384C46.5448 11.384 47.1408 11.548 47.4928 11.876C47.8528 12.204 48.0328 12.784 48.0328 13.616V15.776C48.0328 16.2 48.0848 16.468 48.1888 16.58C48.2928 16.684 48.4848 16.704 48.7648 16.64V16.76ZM44.6128 15.644C44.6528 15.948 44.7648 16.184 44.9488 16.352C45.1328 16.512 45.3448 16.592 45.5848 16.592C45.8328 16.592 46.0488 16.472 46.2328 16.232V14.192L45.8008 14.252C45.4328 14.3 45.1328 14.44 44.9008 14.672C44.6768 14.904 44.5808 15.228 44.6128 15.644ZM52.4839 17H49.4839V16.76H50.0839V11.72H49.4839V11.48H51.8839V12.908C51.9559 12.516 52.0839 12.196 52.2679 11.948C52.4599 11.7 52.6679 11.536 52.8919 11.456C53.1239 11.376 53.3439 11.336 53.5519 11.336C53.7679 11.336 53.9719 11.376 54.1639 11.456C54.3639 11.528 54.5119 11.68 54.6079 11.912C54.7039 12.136 54.7079 12.364 54.6199 12.596C54.5319 12.82 54.3759 12.98 54.1519 13.076C53.9359 13.172 53.7359 13.184 53.5519 13.112C53.3679 13.04 53.2359 12.944 53.1559 12.824C53.0759 12.696 53.0199 12.576 52.9879 12.464C52.9079 12.168 52.7999 12.02 52.6639 12.02C52.5119 12.02 52.3439 12.284 52.1599 12.812C51.9759 13.332 51.8839 13.884 51.8839 14.468V16.76H52.4839V17ZM60.5887 14.6H56.9647C57.0447 16.008 57.5927 16.712 58.6087 16.712C58.8807 16.712 59.1887 16.648 59.5327 16.52C59.8847 16.392 60.1407 16.212 60.3007 15.98L60.4687 16.1C60.2927 16.396 59.9927 16.64 59.5687 16.832C59.1447 17.024 58.7207 17.12 58.2967 17.12C57.8807 17.12 57.5047 17.08 57.1687 17C56.8327 16.912 56.5047 16.768 56.1847 16.568C55.8647 16.368 55.6127 16.068 55.4287 15.668C55.2527 15.268 55.1647 14.784 55.1647 14.216C55.1647 13.248 55.4327 12.532 55.9687 12.068C56.5047 11.596 57.1527 11.36 57.9127 11.36C58.6807 11.36 59.3167 11.616 59.8207 12.128C60.3327 12.64 60.5887 13.464 60.5887 14.6ZM56.9527 14.36H58.9087C58.9087 13.624 58.8287 12.98 58.6687 12.428C58.5167 11.876 58.2687 11.6 57.9247 11.6C57.5807 11.6 57.3327 11.868 57.1807 12.404C57.0287 12.932 56.9527 13.54 56.9527 14.228V14.36ZM67.7605 16.76H68.3605V17H65.3605V16.76H65.9605V13.4C65.9605 12.832 65.8765 12.428 65.7085 12.188C65.5405 11.948 65.2885 11.828 64.9525 11.828C64.4965 11.828 64.1325 12.068 63.8605 12.548V16.76H64.4605V17H61.4605V16.76H62.0605V11.72H61.4605V11.48H63.8605V12.104C64.0125 11.896 64.2485 11.72 64.5685 11.576C64.8965 11.424 65.2485 11.348 65.6245 11.348C67.0485 11.348 67.7605 12.12 67.7605 13.664V16.76ZM71.4028 11.72V14.648C71.4028 15.336 71.4308 15.756 71.4868 15.908C71.5428 16.052 71.6028 16.176 71.6668 16.28C71.7868 16.488 71.9948 16.592 72.2908 16.592C72.5948 16.592 72.8068 16.552 72.9268 16.472V16.712C72.5428 16.984 72.1228 17.12 71.6668 17.12C70.9948 17.12 70.4828 16.96 70.1308 16.64C69.7788 16.32 69.6028 15.748 69.6028 14.924V11.72H68.7148V11.48H69.6028C69.9868 11.416 70.3268 11.232 70.6228 10.928C70.9188 10.616 71.1228 10.188 71.2348 9.644H71.4028V11.48H72.7948V11.72H71.4028Z" fill="white"/>
</svg>
